<?xml version="1.0" encoding="UTF-8"?>
<svg version="1.1" viewBox="0 0 273.2 212.7" xmlns="http://www.w3.org/2000/svg" xmlns:cc="http://creativecommons.org/ns#" xmlns:dc="http://purl.org/dc/elements/1.1/" xmlns:rdf="http://www.w3.org/1999/02/22-rdf-syntax-ns#">
 <metadata>
  <rdf:RDF>
   <cc:Work rdf:about="">
    <dc:format>image/svg+xml</dc:format>
    <dc:type rdf:resource="http://purl.org/dc/dcmitype/StillImage"/>
    <dc:title>pattern orange</dc:title>
   </cc:Work>
  </rdf:RDF>
 </metadata>
 <title>pattern orange</title>
 <g>
  <path transform="translate(-90.4,-199.7)" d="m237.9 322.1c1.5 0.5 3.2 1.1 5-0.1s2.2-4 0.3-6.7a7.2 7.2 0 0 0-5.4-3.2l-0.6 2.6a4.5 4.5 0 0 1 3.6 1.9c1 1.4 0.7 2.5-0.1 3.1s-1.8 0.2-2.9-0.2-2.8-1-4.2 0.1a3 3 0 0 0-1.3 2l1.9 1.4a1.6 1.6 0 0 1 0.6-1.1c0.9-0.6 1.9-0.2 3.1 0.2z"/>
  <path transform="translate(-90.4,-199.7)" d="m230.9 326a1.8 1.8 0 1 0-2.5-0.4 1.8 1.8 0 0 0 2.5 0.4z"/>
  <path transform="translate(-90.4,-199.7)" d="m208.7 328.8a7.1 7.1 0 1 0-12.7 0.4h0.1a1.6 1.6 0 0 1-0.1 1.3l-1 2.2a1.2 1.2 0 0 0 0.1 1.2l1.6 2.1 0.4 0.3h3.3a1.2 1.2 0 0 0 1-0.7l1-2.1a1.7 1.7 0 0 1 1.3-1.1h0.3a7.1 7.1 0 0 0 4.7-3.6zm-11 6.6-1.6-2.1 4.4 2.1h-2.7zm3.7-2.2-0.5 1-4.4-2.1 0.5-1.1 4.4 2.1zm0.7-1-4.7-2.2a2.1 2.1 0 0 0-0.3-1.4 5.9 5.9 0 1 1 6.7 2.9 2.6 2.6 0 0 0-1.7 0.8z" display="none"/>
  <path transform="translate(-90.4,-199.7)" d="m206.8 327.3a4.1 4.1 0 0 0-2-5.6 0.60415 0.60415 0 0 0-0.5 1.1 3.1 3.1 0 0 1 1.4 4 0.60415 0.60415 0 0 0 1.1 0.5z" display="none"/>
  <path transform="translate(-90.4,-199.7)" d="m264.8 329.8a0.54083 0.54083 0 0 0-0.9 0.6l0.3 0.2a0.4 0.4 0 0 1-0.5 0l0.4 0.6a0.4 0.4 0 0 1 0.2-0.5 0.5099 0.5099 0 1 0 1-0.2h0.2a0.54083 0.54083 0 1 0-0.6-0.9z" display="none"/>
  <path transform="translate(-90.4,-199.7)" d="m259.4 344.5-0.4-0.6a0.4 0.4 0 0 1-0.2 0.5 0.5099 0.5099 0 1 0-1 0.2h-0.2a0.54083 0.54083 0 1 0 0.6 0.9l0.2-0.2a0.54083 0.54083 0 0 0 0.9-0.6l-0.3-0.2a0.4 0.4 0 0 1 0.4 0z" display="none"/>
  <path transform="translate(-90.4,-199.7)" d="m273.4 337.5a0.6 0.6 0 0 0-0.1-0.5l-7.4-10.4a0.6 0.6 0 0 0-0.9-0.1l-15 10.6a0.6 0.6 0 0 0-0.3 0.4 0.6 0.6 0 0 0 0 0.3v0.2l7.4 10.4 0.4 0.3h0.5l14.9-10.6a0.6 0.6 0 0 0 0.5-0.6zm-15.4 9.7-6.7-9.4 13.9-9.9 6.7 9.4z" display="none"/>
  <path transform="translate(-90.4,-199.7)" d="m271.9 339.5-14.4 10.3-7.1-9.9a0.60415 0.60415 0 0 0-1.1 0.5v0.2l7.4 10.4a0.6 0.6 0 0 0 0.9 0.1l14.9-10.6a0.6 0.6 0 1 0-0.6-1z" display="none"/>
  <polygon points="113.5 153.2 120.6 163.4 122.7 162.1 116.4 151.4"/>
  <path transform="translate(-90.4,-199.7)" d="m213.1 364.1a1.9 1.9 0 1 0 2.6 0.6 1.9 1.9 0 0 0-2.6-0.6z"/>
  <polygon transform="translate(1.5932 7.0102)" points="96.5 195.5 99.4 192.2 97.9 190.8 95 194.1 91.7 191.2 90.3 192.7 93.6 195.7 90.7 199 92.2 200.3 95.1 197 98.4 199.9 99.8 198.4"/>
  <path d="m80.871 178.12a4.8 4.8 0 1 0 4.8 4.8 4.8 4.8 0 0 0-4.8-4.8zm0.1 7.6a2.8 2.8 0 1 1 2.8-2.8 2.8 2.8 0 0 1-2.8 2.8z"/>
  <path transform="translate(-90.4,-199.7)" d="m232.1 350.1 3.3-8.7-9.2 1.5zm-0.5-3-2.5-3.1 3.9-0.7z"/>
  <path d="m68.451 159.08-2.1-3.9-3.9 2.1 2.1 3.9zm-2.5-2.5 1.1 2.1-2.1 1.1-1.1-2.1z"/>
  <path transform="translate(-90.4,-199.7)" d="m120.9 238.3-3-5.7-5.7 3 3 5.7zm-3.6-3.6 1.6 3-3 1.6-1.6-3z"/>
  <path transform="translate(-90.4,-199.7)" d="m227.8 260.7 0.4 0.3h0.6a0.8 0.8 0 0 0 0.4-1l-0.3-0.8a5.8 5.8 0 0 1 7-7.3l-2.6 1.2a0.8 0.8 0 0 0 0.1 1.5h0.6l4.2-2h0.4v-0.6l-2-4.4a0.8 0.8 0 0 0-1-0.5 0.7 0.7 0 0 0-0.4 1l1.1 2.3a7.3 7.3 0 0 0-9.2 6.9 7.4 7.4 0 0 0 0.7 3.3h0.1z"/>
  <polygon points="131.1 104.5 124.9 109.3 123 106.9 121.1 108.4 124.5 112.7 132.6 106.4"/>
  <path transform="translate(-90.4,-199.7)" d="m332.6 298.9a2.2 2.2 0 1 0-0.2 3.1 2.3 2.3 0 0 0 0.2-3.1z"/>
  <path transform="translate(-90.4,-199.7)" d="m346.3 295.5c2.1-1.9 2.1-5.2-0.6-8.1a8.8 8.8 0 0 0-7-3l-0.3 3.2a5.5 5.5 0 0 1 4.6 1.8c1.4 1.5 1.2 2.9 0.3 3.8s-2.2 0.5-3.6 0.2-3.5-0.8-5.1 0.7a3.6 3.6 0 0 0-1.2 2.7l2.6 1.5a2 2 0 0 1 0.6-1.5c0.9-0.9 2.3-0.5 3.7-0.2s4.1 0.7 6-1.1z"/>
  <path transform="translate(-90.4,-199.7)" d="m306.7 338.5 2.8-1.1 0.5-0.3a1.3 1.3 0 0 0 0.3-0.5l0.8-2.9a1.3 1.3 0 0 0-0.4-1.3l-1.9-1.7a1.9 1.9 0 0 1-0.7-1.7v-0.3a7.9 7.9 0 1 0-6.2 7.4h0.1a1.7 1.7 0 0 1 1.4 0.5l2 1.8a1.3 1.3 0 0 0 1.3 0.1zm-3.5-3.7a2.3 2.3 0 0 0-1.5-0.1 6.6 6.6 0 1 1 5.2-6.2 2.9 2.9 0 0 0 0.3 2zm2.1 1.6-1-0.9 3.6-4 0.9 0.8zm4.5-3.1-0.8 2.9-2.8 1.1z" display="none"/>
  <path transform="translate(-90.4,-199.7)" d="m296.7 324.2a0.7 0.7 0 0 0 1 0.9 3.4 3.4 0 0 1 4.7-0.2 0.7 0.7 0 0 0 0.9-1 4.5 4.5 0 0 0-6.6 0.3z" display="none"/>
  <path transform="translate(-90.4,-199.7)" d="m226.5 282.4a1.9 1.9 0 0 1 0.3 1.9v0.3a7.9 7.9 0 1 0 7.9-5.6h-0.1a1.7 1.7 0 0 1-1.2-0.9l-1.5-2.2a1.3 1.3 0 0 0-1.2-0.6l-3 0.3-0.6 0.2-0.4 0.4-1.5 2.6a1.3 1.3 0 0 0 0 1.4zm8-2.1a6.6 6.6 0 1 1-6.6 4.7 2.9 2.9 0 0 0 0.3-2l4.8-3.1a2.3 2.3 0 0 0 1.5 0.5zm-2.4-1.5-4.5 2.9-0.7-1.1 4.5-2.9zm-4.4-1.9 3-0.3-4.5 2.9z" display="none"/>
  <path transform="translate(-90.4,-199.7)" d="m236.5 291.7a0.7 0.7 0 0 0-0.7-1.1 3.4 3.4 0 0 1-4.6-1 0.7 0.7 0 0 0-1.1 0.7 4.5 4.5 0 0 0 6.4 1.4z" display="none"/>
  <path transform="translate(-90.4,-199.7)" d="m359.1 314.5h-0.2a0.4272 0.4272 0 0 0-0.8 0.3l0.2 0.3a0.4 0.4 0 0 1-0.4-0.1v0.6a0.4 0.4 0 0 1 0.3-0.3 0.40311 0.40311 0 1 0 0.8 0.1h0.2a0.45277 0.45277 0 0 0-0.1-0.9z" display="none"/>
  <path transform="translate(-90.4,-199.7)" d="m350.7 324a0.4 0.4 0 0 1-0.3 0.3 0.40311 0.40311 0 1 0-0.8-0.1h-0.2a0.4272 0.4272 0 1 0 0.3 0.8h0.2a0.4272 0.4272 0 0 0 0.8-0.3l-0.2-0.3a0.4 0.4 0 0 1 0.4 0.1v-0.5z" display="none"/>
  <path transform="translate(-90.4,-199.7)" d="m363.6 322.4-3-10a0.5 0.5 0 0 0-0.6-0.3l-14.3 4.3-0.3 0.3v0.3l3 10 0.3 0.3h0.4l14.3-4.3 0.3-0.3a0.5 0.5 0 0 0-0.1-0.3zm-14.5 3.8-2.7-9 13.3-4 2.7 9z" display="none"/>
  <path transform="translate(-90.4,-199.7)" d="m361.9 323.9-13.9 4.2-2.8-9.5a0.50249 0.50249 0 0 0-1 0.1v0.2l3 10a0.5 0.5 0 0 0 0.6 0.3l14.3-4.3a0.5099 0.5099 0 1 0-0.2-1z" display="none"/>
  <path transform="translate(-90.4,-199.7)" d="m324.6 362.8a1.9 1.9 0 0 0-2.6-0.5 1.9 1.9 0 1 0 2.6 0.5z"/>
  <polygon points="243.1 176.9 235.8 166.7 233.7 168.1 240.2 178.8"/>
  <polygon points="208.1 186 211.3 184.2 210.5 182.7 207.3 184.5 205.4 181.3 203.9 182.2 205.8 185.4 202.6 187.2 203.4 188.7 206.6 186.9 208.5 190.1 210 189.2"/>
  <path transform="translate(-90.4,-199.7)" d="m346.2 347.4a4.5 4.5 0 1 0 4.6 4.3 4.5 4.5 0 0 0-4.6-4.3zm0.2 7.1a2.6 2.6 0 1 1 2.5-2.7 2.6 2.6 0 0 1-2.4 2.7z"/>
  <path transform="translate(-90.4,-199.7)" d="m329.3 339.2 3.1-8.9-9.2 1.7zm-0.6-3.1-2.6-3 3.9-0.7z"/>
  <path transform="translate(-90.4,-199.7)" d="m309.4 359.8-3.9 2.2 2.2 3.9 3.9-2.2zm-2.5 2.6 2.1-1.2 1.2 2.1-2.1 1.2z"/>
  <path transform="translate(-90.4,-199.7)" d="m306.5 284.8 0.5 0.3a0.8 0.8 0 0 0 0.9-0.7l0.2-0.8a5.8 5.8 0 0 1 9.9-2.2l-2.9-0.4a0.8 0.8 0 0 0-0.8 1.3 0.7 0.7 0 0 0 0.5 0.2l4.6 0.6h0.9l0.7-4.6a0.80623 0.80623 0 1 0-1.6-0.2l-0.4 2.6a7.4 7.4 0 0 0-11.5 0.7 7.4 7.4 0 0 0-1.3 3.1 0.8 0.8 0 0 0 0.2 0.5z"/>
  <polygon points="212.4 102.9 214.4 108 224 104 223.1 101.8 215.8 104.8 214.6 102"/>
  <path transform="translate(-90.4,-199.7)" d="m231.4 380.4a2.4 2.4 0 1 0 3.5-0.1 2.5 2.5 0 0 0-3.5 0.1z"/>
  <path transform="translate(-90.4,-199.7)" d="m248 366.3a9.7 9.7 0 0 0-8-2.6v3.5a6 6 0 0 1 5.2 1.5c1.7 1.5 1.7 3.1 0.7 4.1s-2.3 0.8-3.9 0.6-3.9-0.5-5.5 1.2a4 4 0 0 0-1.1 3l3 1.3a2.2 2.2 0 0 1 0.5-1.7c0.9-1 2.4-0.8 4.1-0.6s4.5 0.6 6.5-1.6 1.7-5.8-1.5-8.7z"/>
  <path transform="translate(-90.4,-199.7)" d="m123.2 376a2.1 2.1 0 0 1-0.7-2v-0.4a8.8 8.8 0 1 0-7.3 8h0.1a1.9 1.9 0 0 1 1.5 0.7l2.1 2.1a1.5 1.5 0 0 0 1.5 0.4l3.2-1 0.6-0.4a1.4 1.4 0 0 0 0.4-0.6l1.1-3.2a1.5 1.5 0 0 0-0.4-1.5zm-6.5 4.3a2.6 2.6 0 0 0-1.7-0.2 7.4 7.4 0 1 1 6.1-6.6 3.2 3.2 0 0 0 0.2 2.3zm2.2 1.9-1-1 4.2-4.2 1 1zm4.2 0-3.2 1 4.2-4.2z" display="none"/>
  <path transform="translate(-90.4,-199.7)" d="m110.1 368.2a0.70711 0.70711 0 0 0 1 1 3.8 3.8 0 0 1 5.3 0.1 0.70711 0.70711 0 0 0 1-1 5.1 5.1 0 0 0-7.3-0.1z" display="none"/>
  <path transform="translate(-90.4,-199.7)" d="m230.9 401.2-0.4 0.2a0.6 0.6 0 0 0 0.9 0.7l0.2 0.2a0.6 0.6 0 1 0 0.7-0.9h-0.3a0.6 0.6 0 0 0-0.9-0.7 0.6 0.6 0 0 0-0.1 0.4 0.5 0.5 0 0 1-0.2-0.5l-0.6 0.6a0.5 0.5 0 0 1 0.7 0z" display="none"/>
  <path transform="translate(-90.4,-199.7)" d="m215.5 399.2 0.4-0.2a0.6 0.6 0 0 0-0.9-0.7l-0.2-0.2a0.6 0.6 0 1 0-0.7 0.9h0.2a0.6 0.6 0 0 0 0.9 0.7 0.6 0.6 0 0 0 0.1-0.4 0.5 0.5 0 0 1 0.2 0.5l0.6-0.6a0.5 0.5 0 0 1-0.6 0z" display="none"/>
  <path transform="translate(-90.4,-199.7)" d="m220.5 388.4h-0.9l-8.6 10.5a0.7 0.7 0 0 0-0.1 0.5 0.7 0.7 0 0 0 0.2 0.5l14.9 12.2h0.5l0.5-0.2 8.6-10.4a0.7 0.7 0 0 0-0.1-0.9zm5.8 22.2-13.9-11.4 7.7-9.3 13.9 11.4z" display="none"/>
  <path transform="translate(-90.4,-199.7)" d="m209.8 399.4 8.1-9.9a0.7 0.7 0 0 0-0.9-1h-0.2l-8.5 10.4a0.7 0.7 0 0 0 0.1 0.9l14.9 12.3a0.7 0.7 0 1 0 0.8-1z" display="none"/>
  <polygon points="198.5 157.3 195.8 155.6 186.3 169.2 190.1 171.7"/>
  <path transform="translate(-90.4,-199.7)" d="m291.7 349.7a2.5 2.5 0 1 0 0.8 3.4 2.5 2.5 0 0 0-0.8-3.4z"/>
  <polygon points="236.8 62.9 232.4 60.9 231.4 63 235.9 65 233.9 69.5 236 70.5 238 66 242.5 68 243.4 65.9 238.9 63.9 240.9 59.4 238.9 58.5"/>
  <path transform="translate(-90.4,-199.7)" d="m274.1 402.7a3.7 3.7 0 1 0 2.8 4.4 3.7 3.7 0 0 0-2.8-4.4zm1.3 4.1a2.2 2.2 0 1 1-1.7-2.6 2.2 2.2 0 0 1 1.8 2.6z"/>
  <path transform="translate(-90.4,-199.7)" d="m189.4 208.6a3.7 3.7 0 1 0-2.8-4.4 3.7 3.7 0 0 0 2.8 4.4zm-1.3-4.1a2.2 2.2 0 1 1 1.7 2.6 2.2 2.2 0 0 1-1.8-2.6z"/>
  <path transform="translate(-90.4,-199.7)" d="m313.7 405.7 9.1-8.5-11.9-3.7zm5.1-7.6-3.9 3.6-1.2-5.2z"/>
  <path transform="translate(-90.4,-199.7)" d="m256.1 384.6 2.3 8.6 8.6-2.3-2.3-8.6zm3.8 6-1.2-4.5 4.5-1.2 1.2 4.5z"/>
  <path d="m100.89 164.5-3.3 1.2a9.8 9.8 0 0 0-8.1-13.1h-0.1a9.9 9.9 0 0 0-4.4 0.5h-0.2a1.1 1.1 0 0 0-0.4 0.5 1.1 1.1 0 0 0 1.3 1.3l1-0.3a7.7 7.7 0 0 1 8.8 10.2l-1.3-3.6a1.1 1.1 0 1 0-2 0.7l2.1 5.8h0.8v0.7h1l5.7-2.1a1 1 0 0 0 0.6-1.4 1.1 1.1 0 0 0-1.5-0.4z"/>
  <polygon transform="translate(-44.55 -3.0688)" points="55 162.9 53.2 166.1 60.6 170 67.9 156.3 64.7 154.5 59.1 165.1"/>
  <path transform="translate(-90.4,-199.7)" d="m236.3 222.4a2.6 2.6 0 1 0 3.1-2.1 2.7 2.7 0 0 0-3.1 2.1z"/>
  <path transform="translate(-90.4,-199.7)" d="m242.2 203.7c2.4 0.4 3.3 1.9 3 3.3s-1.7 2.1-3.2 2.8-3.8 1.8-4.3 4.3a4.3 4.3 0 0 0 0.8 3.4l3.5-0.5a2.4 2.4 0 0 1-0.5-1.8c0.3-1.5 1.7-2.1 3.3-2.9s4.5-2.1 5-5.1-1.8-6.4-6.5-7.2a10.5 10.5 0 0 0-8.8 2.2l2 3.3a6.5 6.5 0 0 1 5.7-1.8z"/>
  <path transform="translate(-90.4,-199.7)" d="m202.4 239.6h0.1a2.3 2.3 0 0 1 0.8 1.7l0.2 3.5a1.7 1.7 0 0 0 1 1.5l3.6 1.6h0.8l0.8-0.2 3.4-2a1.7 1.7 0 0 0 0.9-1.6l-0.2-3.4a2.5 2.5 0 0 1 0.9-2.3l0.4-0.3a10.3 10.3 0 1 0-12.7 1.5zm2.6 1.8 7-0.4v1.6l-7 0.4v-1.7zm3.7 5-3.6-1.6 7-0.4zm-1.3-24.1a8.6 8.6 0 0 1 6.4 14.9 3.8 3.8 0 0 0-1.6 2.1l-7.6 0.4a3 3 0 0 0-1.3-1.5 8.6 8.6 0 0 1 4.2-15.9z" display="none"/>
  <path transform="translate(-90.4,-199.7)" d="m208.5 225.6a4.5 4.5 0 0 1 4.5 4.2 0.9 0.9 0 0 0 1.7-0.1 5.9 5.9 0 0 0-6.3-5.8 0.9 0.9 0 0 0 0.1 1.7z" display="none"/>
  <path transform="translate(-90.4,-199.7)" d="m287.1 221.3a0.6 0.6 0 0 0-0.3-0.8l0.2-0.2a0.6265 0.6265 0 1 0-1.1-0.6 0.6 0.6 0 0 0-0.1 0.3 0.60415 0.60415 0 0 0-0.5 1.1h0.5a0.5 0.5 0 0 1-0.5 0.3l0.8 0.4a0.5 0.5 0 0 1-0.1-0.6l0.3 0.3a0.6 0.6 0 0 0 0.8-0.2z" display="none"/>
  <path transform="translate(-90.4,-199.7)" d="m288.5 238.9a0.6 0.6 0 0 0-0.3-0.8h-0.5a0.5 0.5 0 0 1 0.5-0.3l-0.8-0.4a0.5 0.5 0 0 1 0.1 0.6l-0.3-0.3a0.6265 0.6265 0 0 0-0.6 1.1l-0.2 0.2a0.60415 0.60415 0 1 0 1.1 0.5 0.6 0.6 0 0 0 0.1-0.3 0.6 0.6 0 0 0 0.9-0.3z" display="none"/>
  <path transform="translate(-90.4,-199.7)" d="m275.1 236.1h0.2l13 6.5h0.6l0.4-0.4 9.3-18.7a0.7 0.7 0 0 0-0.3-1l-13-6.5a0.7 0.7 0 0 0-1 0.3l-9.3 18.7a0.7 0.7 0 0 0 0 0.6zm10.2-18.2 11.7 5.9-8.7 17.4-11.7-5.9z" display="none"/>
  <path transform="translate(-90.4,-199.7)" d="m298.2 226-9 18-12.4-6.2a0.72111 0.72111 0 0 0-0.8 1.2h0.2l13 6.5a0.7 0.7 0 0 0 1-0.3l9.3-18.7a0.7 0.7 0 1 0-1.3-0.5z" display="none"/>
  <path transform="translate(-90.4,-199.7)" d="m253.9 300.8a2.8 2.8 0 0 0 1.2-3.7 2.7 2.7 0 1 0-1.2 3.7z"/>
  <polygon points="182.2 85.7 166.5 94.5 168.1 97.7 184.5 90.1"/>
  <polygon points="189 111.9 186 116.3 188 117.7 191 113.3 195.4 116.4 196.8 114.3 192.4 111.3 195.5 106.9 193.4 105.5 190.4 109.9 186 106.9 184.6 108.9"/>
  <path transform="translate(-90.4,-199.7)" d="m321.5 242.1a4 4 0 1 0-5.7 0.3 4 4 0 0 0 5.7-0.3zm-4.8-4.2a2.4 2.4 0 1 1 0.2 3.3 2.4 2.4 0 0 1-0.1-3.4z"/>
  <path transform="translate(-90.4,-199.7)" d="m252.8 269.6 12.5 5.2-1.8-13.4zm4.4-0.6 4.6-3.5 0.8 5.7z"/>
  <path transform="translate(-90.4,-199.7)" d="m158.5 212.5-7.2 5.5 8.4 3.5zm-4.2 5.1 3.1-2.4 0.5 3.8z"/>
  <path transform="translate(-90.4,-199.7)" d="m291.9 261.8-6.3-1.6-1.6 6.3 6.3 1.6zm-2.7 4.4-3.3-0.8 0.8-3.3 3.3 0.8z"/>
  <path transform="translate(-90.4,-199.7)" d="m166.4 276.2 1-0.6a8.4 8.4 0 0 1 11.9 8.5l-2.3-3.5a1.1511 1.1511 0 1 0-1.9 1.3l3.7 5.6h1.6l5.6-3.7a1.1511 1.1511 0 1 0-1.3-1.9l-3.2 2.1a10.7 10.7 0 0 0-11.8-11.7h-0.1a10.7 10.7 0 0 0-4.5 1.7h-0.1a1.1 1.1 0 0 0-0.3 0.6 1.1673 1.1673 0 0 0 1.7 1.6z"/>
  <polygon points="162.3 36.9 159.5 33.6 156.8 35.9 162 41.8 173.2 32.1 171 29.5"/>
  <path transform="translate(-90.4,-199.7)" d="m192.4 261.6a2.9 2.9 0 1 0 0.7-4.1 3 3 0 0 0-0.7 4.1z"/>
  <path transform="translate(-90.4,-199.7)" d="m198.9 280.8c2.2 3.1 6.5 3.5 10.8 0.4a11.6 11.6 0 0 0 5-8.7l-4.1-0.9a7.2 7.2 0 0 1-3 5.8c-2.2 1.6-4.1 1.2-5-0.1s-0.4-2.9 0.2-4.7 1.5-4.4-0.1-6.7a4.8 4.8 0 0 0-3.3-2l-2.3 3.1a2.6 2.6 0 0 1 1.9 1c1 1.4 0.4 3-0.3 4.9s-1.8 5.1 0.2 7.9z"/>
  <path transform="translate(-90.4,-199.7)" d="m101.6 278a2.7 2.7 0 0 1 2.6-0.9h0.5a11.5 11.5 0 1 0-10-9.9v0.2a2.5 2.5 0 0 1-0.9 1.9l-2.8 2.7a1.9 1.9 0 0 0-0.5 1.9l1.2 4.2a1.9 1.9 0 0 0 0.4 0.8l0.7 0.5 4.1 1.5a1.9 1.9 0 0 0 2-0.4zm-5-10.9a9.6 9.6 0 1 1 8.3 8.3 4.2 4.2 0 0 0-3 0.1l-5.7-6.2a3.3 3.3 0 0 0 0.4-2.2zm-1.6 3.8 5.3 5.7h-0.1l-1.2 1.2-5.3-5.7zm-1.6 6.8-1.2-4.2 5.3 5.7z" display="none"/>
  <path transform="translate(-90.4,-199.7)" d="m112 270.9a6.6 6.6 0 0 0 0.4-9.5 1 1 0 0 0-1.4 1.3 5 5 0 0 1-0.3 6.8 1 1 0 0 0 1.3 1.4z" display="none"/>
  <path transform="translate(-90.4,-199.7)" d="m180.9 308-0.4 0.4a0.7 0.7 0 0 0 1.3 0.5l0.3 0.2a0.7 0.7 0 0 0 0.5-1.3h-0.3a0.7 0.7 0 0 0-1.3-0.5 0.7 0.7 0 0 0 0 0.5 0.6 0.6 0 0 1-0.4-0.6l-0.4 1a0.6 0.6 0 0 1 0.7-0.2z" display="none"/>
  <path transform="translate(-90.4,-199.7)" d="m162.5 310.9 0.4-0.4a0.7 0.7 0 0 0-1.3-0.5l-0.3-0.2a0.7 0.7 0 1 0-0.5 1.3h0.3a0.7 0.7 0 0 0 1.3 0.5 0.7 0.7 0 0 0 0-0.5 0.6 0.6 0 0 1 0.4 0.6l0.4-1a0.6 0.6 0 0 1-0.7 0.2z" display="none"/>
  <path transform="translate(-90.4,-199.7)" d="m157.2 312.6a0.8 0.8 0 0 0 0.4 0.4l21.3 9.1h0.6a0.8 0.8 0 0 0 0.4-0.4l6.4-14.9a0.8 0.8 0 0 0-0.4-1.1l-21.3-9.1h-0.6l-0.3 0.2v0.2l-6.5 15a0.8 0.8 0 0 0 0 0.6zm7.5-14.1 19.8 8.5-5.7 13.4-19.8-8.5z" display="none"/>
  <path transform="translate(-90.4,-199.7)" d="m176.5 321.9-20.6-8.9 6.1-14.1a0.8 0.8 0 0 0-1.3-0.9v0.2l-6.4 14.9a0.8 0.8 0 0 0 0.4 1.1l21.3 9.1a0.8 0.8 0 1 0 0.5-1.4z" display="none"/>
  <path transform="translate(-90.4,-199.7)" d="m105.9 330.4a2.4 2.4 0 0 0-2.8-1.9 2.4 2.4 0 1 0 2.8 1.9z"/>
  <polygon points="10.8 126.6 13.8 126 11.5 110.5 7.2 111.4"/>
  <polygon points="42.6 79.4 48.6 82.7 45.3 88.7 48.1 90.3 51.5 84.2 57.5 87.5 59 84.7 53 81.4 56.3 75.4 53.5 73.8 50.2 79.9 44.1 76.6"/>
  <path transform="translate(-90.4,-199.7)" d="m152.3 333.4a4.5 4.5 0 1 0-0.8-6.3 4.5 4.5 0 0 0 0.8 6.3zm0.7-5.1a2.6 2.6 0 1 1 0.4 3.7 2.6 2.6 0 0 1-0.4-3.8z"/>
  <path transform="translate(-90.4,-199.7)" d="m114.5 312.7 12.9-7.7-13.1-7.3zm7.9-7.6-5.5 3.3v-6.4z"/>
  <path transform="translate(-90.4,-199.7)" d="m124.2 341.6 7.5 7.3 7.3-7.5-7.5-7.3zm11.3-0.1-3.9 3.9-3.9-3.9 3.9-3.9z"/>
  <path transform="translate(-90.4,-199.7)" d="m177.1 236.9h0.5l4.6 1.8a0.8544 0.8544 0 0 0 0.6-1.6l-2.6-1a7.9 7.9 0 0 0 2-12.1 7.9 7.9 0 0 0-2.9-2h-0.7a0.8 0.8 0 0 0 0.1 1.5l0.8 0.4a6.2 6.2 0 0 1-0.1 10.8l1.1-2.9a0.8 0.8 0 0 0-0.5-1.1h-0.6a0.8 0.8 0 0 0-0.4 0.5l-1.8 4.4v0.4h-0.2v0.4h0.1v0.1z"/>
  <polygon points="44.2 41.8 50.1 48.3 62.3 37.1 59.7 34.3 50.4 42.8 47 39.2"/>
  <g transform="matrix(.05689 -.037509 .037509 .05689 -8.1998 64.401)">
   <g>
    <path d="m299.48 70.848c-10.399-5.568-22.956-4.96-32.77 1.583l-137.2 91.466h-52.013c-13.339 0-24.299 10.298-25.394 23.358h-7.344c-24.681 0-44.76 20.079-44.76 44.76v47.972c0 24.681 20.079 44.76 44.76 44.76h7.343c1.096 13.06 12.057 23.358 25.394 23.358h52.012l137.2 91.466c5.351 3.566 11.516 5.37 17.704 5.369 5.161 0 10.338-1.255 15.066-3.786 10.4-5.566 16.859-16.35 16.859-28.145v-314.02c2e-3 -11.795-6.458-22.58-16.857-28.145zm-247.48 228.57h-7.234c-10.714-1e-3 -19.43-8.717-19.43-19.432v-47.972c0-10.714 8.716-19.43 19.43-19.43h7.234zm68.686 23.357h-43.182c-0.095 0-0.174-0.077-0.174-0.174v-133.2c0-0.096 0.078-0.174 0.174-0.174h43.182zm170.33 90.235c0 3.564-2.434 5.252-3.482 5.812-1.047 0.56-3.802 1.65-6.768-0.327l-134.75-89.833v-145.32l134.75-89.832c2.967-1.977 5.722-0.887 6.768-0.327 1.047 0.56 3.482 2.248 3.482 5.812z"/>
   </g>
   <g>
    <path d="m445.61 95.47c-4.452-4.452-11.668-4.452-16.12 0s-4.452 11.668 0 16.12c38.509 38.509 59.716 89.795 59.716 144.41 0 54.617-21.209 105.9-59.717 144.41-4.452 4.452-4.452 11.668 0 16.119 2.225 2.227 5.142 3.338 8.06 3.338 2.917 0 5.835-1.113 8.06-3.338 42.815-42.815 66.394-99.826 66.394-160.53 0-60.705-23.579-117.72-66.393-160.53z"/>
   </g>
   <g>
    <path d="m383.01 158.07c-4.452-4.453-11.668-4.453-16.12-1e-3s-4.452 11.668 0 16.12c21.815 21.815 33.829 50.871 33.828 81.816 0 30.944-12.014 60.001-33.829 81.816-4.452 4.452-4.452 11.668 0 16.12 2.225 2.227 5.142 3.338 8.06 3.338 2.917 0 5.835-1.113 8.06-3.338 26.121-26.121 40.507-60.902 40.507-97.936 0-37.033-14.385-71.815-40.506-97.935z"/>
   </g>
  </g>
  <g transform="matrix(-.0048123 -.061881 .061881 -.0048123 103.22 48.846)">
   <g>
    <g>
     <path d="m299.48 70.848c-10.399-5.568-22.956-4.96-32.77 1.583l-137.2 91.466h-52.013c-13.339 0-24.299 10.298-25.394 23.358h-7.344c-24.681 0-44.76 20.079-44.76 44.76v47.972c0 24.681 20.079 44.76 44.76 44.76h7.343c1.096 13.06 12.057 23.358 25.394 23.358h52.012l137.2 91.466c5.351 3.566 11.516 5.37 17.704 5.369 5.161 0 10.338-1.255 15.066-3.786 10.4-5.566 16.859-16.35 16.859-28.145v-314.02c2e-3 -11.795-6.458-22.58-16.857-28.145zm-247.48 228.57h-7.234c-10.714-1e-3 -19.43-8.717-19.43-19.432v-47.972c0-10.714 8.716-19.43 19.43-19.43h7.234zm68.686 23.357h-43.182c-0.095 0-0.174-0.077-0.174-0.174v-133.2c0-0.096 0.078-0.174 0.174-0.174h43.182zm170.33 90.235c0 3.564-2.434 5.252-3.482 5.812-1.047 0.56-3.802 1.65-6.768-0.327l-134.75-89.833v-145.32l134.75-89.832c2.967-1.977 5.722-0.887 6.768-0.327 1.047 0.56 3.482 2.248 3.482 5.812z"/>
    </g>
   </g>
   <g>
    <path d="m445.61 95.47c-4.452-4.452-11.668-4.452-16.12 0s-4.452 11.668 0 16.12c38.509 38.509 59.716 89.795 59.716 144.41 0 54.617-21.209 105.9-59.717 144.41-4.452 4.452-4.452 11.668 0 16.119 2.225 2.227 5.142 3.338 8.06 3.338 2.917 0 5.835-1.113 8.06-3.338 42.815-42.815 66.394-99.826 66.394-160.53 0-60.705-23.579-117.72-66.393-160.53z"/>
   </g>
   <g>
    <g>
     <path d="m383.01 158.07c-4.452-4.453-11.668-4.453-16.12-1e-3s-4.452 11.668 0 16.12c21.815 21.815 33.829 50.871 33.828 81.816 0 30.944-12.014 60.001-33.829 81.816-4.452 4.452-4.452 11.668 0 16.12 2.225 2.227 5.142 3.338 8.06 3.338 2.917 0 5.835-1.113 8.06-3.338 26.121-26.121 40.507-60.902 40.507-97.936 0-37.033-14.385-71.815-40.506-97.935z"/>
    </g>
   </g>
  </g>
  <g transform="matrix(-.043709 -.034261 .034261 -.043709 50.598 197.19)">
   <g>
    <path d="m299.48 70.848c-10.399-5.568-22.956-4.96-32.77 1.583l-137.2 91.466h-52.013c-13.339 0-24.299 10.298-25.394 23.358h-7.344c-24.681 0-44.76 20.079-44.76 44.76v47.972c0 24.681 20.079 44.76 44.76 44.76h7.343c1.096 13.06 12.057 23.358 25.394 23.358h52.012l137.2 91.466c5.351 3.566 11.516 5.37 17.704 5.369 5.161 0 10.338-1.255 15.066-3.786 10.4-5.566 16.859-16.35 16.859-28.145v-314.02c2e-3 -11.795-6.458-22.58-16.857-28.145zm-247.48 228.57h-7.234c-10.714-1e-3 -19.43-8.717-19.43-19.432v-47.972c0-10.714 8.716-19.43 19.43-19.43h7.234zm68.686 23.357h-43.182c-0.095 0-0.174-0.077-0.174-0.174v-133.2c0-0.096 0.078-0.174 0.174-0.174h43.182zm170.33 90.235c0 3.564-2.434 5.252-3.482 5.812-1.047 0.56-3.802 1.65-6.768-0.327l-134.75-89.833v-145.32l134.75-89.832c2.967-1.977 5.722-0.887 6.768-0.327 1.047 0.56 3.482 2.248 3.482 5.812z"/>
   </g>
   <g>
    <path d="m445.61 95.47c-4.452-4.452-11.668-4.452-16.12 0s-4.452 11.668 0 16.12c38.509 38.509 59.716 89.795 59.716 144.41 0 54.617-21.209 105.9-59.717 144.41-4.452 4.452-4.452 11.668 0 16.119 2.225 2.227 5.142 3.338 8.06 3.338 2.917 0 5.835-1.113 8.06-3.338 42.815-42.815 66.394-99.826 66.394-160.53 0-60.705-23.579-117.72-66.393-160.53z"/>
   </g>
   <g>
    <path d="m383.01 158.07c-4.452-4.453-11.668-4.453-16.12-1e-3s-4.452 11.668 0 16.12c21.815 21.815 33.829 50.871 33.828 81.816 0 30.944-12.014 60.001-33.829 81.816-4.452 4.452-4.452 11.668 0 16.12 2.225 2.227 5.142 3.338 8.06 3.338 2.917 0 5.835-1.113 8.06-3.338 26.121-26.121 40.507-60.902 40.507-97.936 0-37.033-14.385-71.815-40.506-97.935z"/>
   </g>
  </g>
  <g transform="matrix(.028023 .041312 -.041312 .028023 145.55 67.513)">
   <g>
    <path d="m299.48 70.848c-10.399-5.568-22.956-4.96-32.77 1.583l-137.2 91.466h-52.013c-13.339 0-24.299 10.298-25.394 23.358h-7.344c-24.681 0-44.76 20.079-44.76 44.76v47.972c0 24.681 20.079 44.76 44.76 44.76h7.343c1.096 13.06 12.057 23.358 25.394 23.358h52.012l137.2 91.466c5.351 3.566 11.516 5.37 17.704 5.369 5.161 0 10.338-1.255 15.066-3.786 10.4-5.566 16.859-16.35 16.859-28.145v-314.02c2e-3 -11.795-6.458-22.58-16.857-28.145zm-247.48 228.57h-7.234c-10.714-1e-3 -19.43-8.717-19.43-19.432v-47.972c0-10.714 8.716-19.43 19.43-19.43h7.234zm68.686 23.357h-43.182c-0.095 0-0.174-0.077-0.174-0.174v-133.2c0-0.096 0.078-0.174 0.174-0.174h43.182zm170.33 90.235c0 3.564-2.434 5.252-3.482 5.812-1.047 0.56-3.802 1.65-6.768-0.327l-134.75-89.833v-145.32l134.75-89.832c2.967-1.977 5.722-0.887 6.768-0.327 1.047 0.56 3.482 2.248 3.482 5.812z"/>
   </g>
   <g>
    <path d="m445.61 95.47c-4.452-4.452-11.668-4.452-16.12 0s-4.452 11.668 0 16.12c38.509 38.509 59.716 89.795 59.716 144.41 0 54.617-21.209 105.9-59.717 144.41-4.452 4.452-4.452 11.668 0 16.119 2.225 2.227 5.142 3.338 8.06 3.338 2.917 0 5.835-1.113 8.06-3.338 42.815-42.815 66.394-99.826 66.394-160.53 0-60.705-23.579-117.72-66.393-160.53z"/>
   </g>
   <g>
    <path d="m383.01 158.07c-4.452-4.453-11.668-4.453-16.12-1e-3s-4.452 11.668 0 16.12c21.815 21.815 33.829 50.871 33.828 81.816 0 30.944-12.014 60.001-33.829 81.816-4.452 4.452-4.452 11.668 0 16.12 2.225 2.227 5.142 3.338 8.06 3.338 2.917 0 5.835-1.113 8.06-3.338 26.121-26.121 40.507-60.902 40.507-97.936 0-37.033-14.385-71.815-40.506-97.935z"/>
   </g>
  </g>
  <g transform="matrix(.025432 -.03562 .03562 .025432 95.056 131.12)">
   <g>
    <path d="m299.48 70.848c-10.399-5.568-22.956-4.96-32.77 1.583l-137.2 91.466h-52.013c-13.339 0-24.299 10.298-25.394 23.358h-7.344c-24.681 0-44.76 20.079-44.76 44.76v47.972c0 24.681 20.079 44.76 44.76 44.76h7.343c1.096 13.06 12.057 23.358 25.394 23.358h52.012l137.2 91.466c5.351 3.566 11.516 5.37 17.704 5.369 5.161 0 10.338-1.255 15.066-3.786 10.4-5.566 16.859-16.35 16.859-28.145v-314.02c2e-3 -11.795-6.458-22.58-16.857-28.145zm-247.48 228.57h-7.234c-10.714-1e-3 -19.43-8.717-19.43-19.432v-47.972c0-10.714 8.716-19.43 19.43-19.43h7.234zm68.686 23.357h-43.182c-0.095 0-0.174-0.077-0.174-0.174v-133.2c0-0.096 0.078-0.174 0.174-0.174h43.182zm170.33 90.235c0 3.564-2.434 5.252-3.482 5.812-1.047 0.56-3.802 1.65-6.768-0.327l-134.75-89.833v-145.32l134.75-89.832c2.967-1.977 5.722-0.887 6.768-0.327 1.047 0.56 3.482 2.248 3.482 5.812z"/>
   </g>
   <g>
    <path d="m445.61 95.47c-4.452-4.452-11.668-4.452-16.12 0s-4.452 11.668 0 16.12c38.509 38.509 59.716 89.795 59.716 144.41 0 54.617-21.209 105.9-59.717 144.41-4.452 4.452-4.452 11.668 0 16.119 2.225 2.227 5.142 3.338 8.06 3.338 2.917 0 5.835-1.113 8.06-3.338 42.815-42.815 66.394-99.826 66.394-160.53 0-60.705-23.579-117.72-66.393-160.53z"/>
   </g>
   <g>
    <path d="m383.01 158.07c-4.452-4.453-11.668-4.453-16.12-1e-3s-4.452 11.668 0 16.12c21.815 21.815 33.829 50.871 33.828 81.816 0 30.944-12.014 60.001-33.829 81.816-4.452 4.452-4.452 11.668 0 16.12 2.225 2.227 5.142 3.338 8.06 3.338 2.917 0 5.835-1.113 8.06-3.338 26.121-26.121 40.507-60.902 40.507-97.936 0-37.033-14.385-71.815-40.506-97.935z"/>
   </g>
  </g>
  <g transform="matrix(-.039818 -.030109 .030109 -.039818 214.18 148.65)">
   <g>
    <path d="m299.48 70.848c-10.399-5.568-22.956-4.96-32.77 1.583l-137.2 91.466h-52.013c-13.339 0-24.299 10.298-25.394 23.358h-7.344c-24.681 0-44.76 20.079-44.76 44.76v47.972c0 24.681 20.079 44.76 44.76 44.76h7.343c1.096 13.06 12.057 23.358 25.394 23.358h52.012l137.2 91.466c5.351 3.566 11.516 5.37 17.704 5.369 5.161 0 10.338-1.255 15.066-3.786 10.4-5.566 16.859-16.35 16.859-28.145v-314.02c2e-3 -11.795-6.458-22.58-16.857-28.145zm-247.48 228.57h-7.234c-10.714-1e-3 -19.43-8.717-19.43-19.432v-47.972c0-10.714 8.716-19.43 19.43-19.43h7.234zm68.686 23.357h-43.182c-0.095 0-0.174-0.077-0.174-0.174v-133.2c0-0.096 0.078-0.174 0.174-0.174h43.182zm170.33 90.235c0 3.564-2.434 5.252-3.482 5.812-1.047 0.56-3.802 1.65-6.768-0.327l-134.75-89.833v-145.32l134.75-89.832c2.967-1.977 5.722-0.887 6.768-0.327 1.047 0.56 3.482 2.248 3.482 5.812z"/>
   </g>
   <g>
    <path d="m445.61 95.47c-4.452-4.452-11.668-4.452-16.12 0s-4.452 11.668 0 16.12c38.509 38.509 59.716 89.795 59.716 144.41 0 54.617-21.209 105.9-59.717 144.41-4.452 4.452-4.452 11.668 0 16.119 2.225 2.227 5.142 3.338 8.06 3.338 2.917 0 5.835-1.113 8.06-3.338 42.815-42.815 66.394-99.826 66.394-160.53 0-60.705-23.579-117.72-66.393-160.53z"/>
   </g>
   <g>
    <path d="m383.01 158.07c-4.452-4.453-11.668-4.453-16.12-1e-3s-4.452 11.668 0 16.12c21.815 21.815 33.829 50.871 33.828 81.816 0 30.944-12.014 60.001-33.829 81.816-4.452 4.452-4.452 11.668 0 16.12 2.225 2.227 5.142 3.338 8.06 3.338 2.917 0 5.835-1.113 8.06-3.338 26.121-26.121 40.507-60.902 40.507-97.936 0-37.033-14.385-71.815-40.506-97.935z"/>
   </g>
  </g>
  <g transform="matrix(-.019267 .045411 -.045411 -.019267 97.073 103.03)">
   <g>
    <path d="m447.93 103.63c-0.034-3.076-1.224-6.09-3.485-8.352l-91.765-91.766c-4e-3 -4e-3 -7e-3 -5e-3 -0.011-8e-3 -2.167-2.165-5.161-3.503-8.466-3.503h-254.93c-13.917 0-25.238 11.32-25.238 25.237v461.52c0 13.916 11.32 25.237 25.237 25.237h333.44c13.916 0 25.237-11.32 25.237-25.237v-383.01c2e-3 -0.044-0.021-0.081-0.025-0.124zm-91.739-62.698 50.834 50.834h-49.572c-0.695 0-1.262-0.567-1.262-1.262zm67.789 445.83c0 0.695-0.566 1.261-1.261 1.261h-333.44c-0.695 0-1.261-0.566-1.261-1.261v-461.53c0-0.695 0.566-1.261 1.261-1.261h242.94v66.527c0 13.916 11.322 25.239 25.239 25.239h66.527v371.02z"/>
   </g>
   <g>
    <path d="m362.09 164.01h-212.18c-6.62 0-11.988 5.367-11.988 11.988 0 6.62 5.368 11.988 11.988 11.988h212.18c6.62 0 11.988-5.368 11.988-11.988 1e-3 -6.621-5.368-11.988-11.987-11.988z"/>
   </g>
   <g>
    <path d="m362.09 236.35h-212.18c-6.62 0-11.988 5.368-11.988 11.988s5.368 11.988 11.988 11.988h212.18c6.62 0 11.988-5.368 11.988-11.988 1e-3 -6.62-5.368-11.988-11.987-11.988z"/>
   </g>
   <g>
    <path d="m362.09 308.69h-212.18c-6.62 0-11.988 5.368-11.988 11.988 0 6.621 5.368 11.988 11.988 11.988h212.18c6.62 0 11.988-5.367 11.988-11.988 1e-3 -6.619-5.368-11.988-11.987-11.988z"/>
   </g>
   <g>
    <path d="m256 381.03h-106.09c-6.62 0-11.988 5.368-11.988 11.988 0 6.621 5.368 11.988 11.988 11.988h106.09c6.62 0 11.988-5.367 11.988-11.988s-5.368-11.988-11.988-11.988z"/>
   </g>
  </g>
  <g transform="matrix(.044176 .023756 -.023756 .044176 191.53 14.51)">
   <g>
    <path d="m447.93 103.63c-0.034-3.076-1.224-6.09-3.485-8.352l-91.765-91.766c-4e-3 -4e-3 -7e-3 -5e-3 -0.011-8e-3 -2.167-2.165-5.161-3.503-8.466-3.503h-254.93c-13.917 0-25.238 11.32-25.238 25.237v461.52c0 13.916 11.32 25.237 25.237 25.237h333.44c13.916 0 25.237-11.32 25.237-25.237v-383.01c2e-3 -0.044-0.021-0.081-0.025-0.124zm-91.739-62.698 50.834 50.834h-49.572c-0.695 0-1.262-0.567-1.262-1.262zm67.789 445.83c0 0.695-0.566 1.261-1.261 1.261h-333.44c-0.695 0-1.261-0.566-1.261-1.261v-461.53c0-0.695 0.566-1.261 1.261-1.261h242.94v66.527c0 13.916 11.322 25.239 25.239 25.239h66.527v371.02z"/>
   </g>
   <g>
    <path d="m362.09 164.01h-212.18c-6.62 0-11.988 5.367-11.988 11.988 0 6.62 5.368 11.988 11.988 11.988h212.18c6.62 0 11.988-5.368 11.988-11.988 1e-3 -6.621-5.368-11.988-11.987-11.988z"/>
   </g>
   <g>
    <path d="m362.09 236.35h-212.18c-6.62 0-11.988 5.368-11.988 11.988s5.368 11.988 11.988 11.988h212.18c6.62 0 11.988-5.368 11.988-11.988 1e-3 -6.62-5.368-11.988-11.987-11.988z"/>
   </g>
   <g>
    <path d="m362.09 308.69h-212.18c-6.62 0-11.988 5.368-11.988 11.988 0 6.621 5.368 11.988 11.988 11.988h212.18c6.62 0 11.988-5.367 11.988-11.988 1e-3 -6.619-5.368-11.988-11.987-11.988z"/>
   </g>
   <g>
    <path d="m256 381.03h-106.09c-6.62 0-11.988 5.368-11.988 11.988 0 6.621 5.368 11.988 11.988 11.988h106.09c6.62 0 11.988-5.367 11.988-11.988s-5.368-11.988-11.988-11.988z"/>
   </g>
  </g>
  <g transform="matrix(.0096115 .032221 -.032221 .0096115 269.67 110.97)">
   <g>
    <path d="m447.93 103.63c-0.034-3.076-1.224-6.09-3.485-8.352l-91.765-91.766c-4e-3 -4e-3 -7e-3 -5e-3 -0.011-8e-3 -2.167-2.165-5.161-3.503-8.466-3.503h-254.93c-13.917 0-25.238 11.32-25.238 25.237v461.52c0 13.916 11.32 25.237 25.237 25.237h333.44c13.916 0 25.237-11.32 25.237-25.237v-383.01c2e-3 -0.044-0.021-0.081-0.025-0.124zm-91.739-62.698 50.834 50.834h-49.572c-0.695 0-1.262-0.567-1.262-1.262zm67.789 445.83c0 0.695-0.566 1.261-1.261 1.261h-333.44c-0.695 0-1.261-0.566-1.261-1.261v-461.53c0-0.695 0.566-1.261 1.261-1.261h242.94v66.527c0 13.916 11.322 25.239 25.239 25.239h66.527v371.02z"/>
   </g>
   <g>
    <path d="m362.09 164.01h-212.18c-6.62 0-11.988 5.367-11.988 11.988 0 6.62 5.368 11.988 11.988 11.988h212.18c6.62 0 11.988-5.368 11.988-11.988 1e-3 -6.621-5.368-11.988-11.987-11.988z"/>
   </g>
   <g>
    <path d="m362.09 236.35h-212.18c-6.62 0-11.988 5.368-11.988 11.988s5.368 11.988 11.988 11.988h212.18c6.62 0 11.988-5.368 11.988-11.988 1e-3 -6.62-5.368-11.988-11.987-11.988z"/>
   </g>
   <g>
    <path d="m362.09 308.69h-212.18c-6.62 0-11.988 5.368-11.988 11.988 0 6.621 5.368 11.988 11.988 11.988h212.18c6.62 0 11.988-5.367 11.988-11.988 1e-3 -6.619-5.368-11.988-11.987-11.988z"/>
   </g>
   <g>
    <path d="m256 381.03h-106.09c-6.62 0-11.988 5.368-11.988 11.988 0 6.621 5.368 11.988 11.988 11.988h106.09c6.62 0 11.988-5.367 11.988-11.988s-5.368-11.988-11.988-11.988z"/>
   </g>
  </g>
  <g transform="matrix(.022286 .030609 -.030609 .022286 172.94 125.36)">
   <g>
    <path d="m447.93 103.63c-0.034-3.076-1.224-6.09-3.485-8.352l-91.765-91.766c-4e-3 -4e-3 -7e-3 -5e-3 -0.011-8e-3 -2.167-2.165-5.161-3.503-8.466-3.503h-254.93c-13.917 0-25.238 11.32-25.238 25.237v461.52c0 13.916 11.32 25.237 25.237 25.237h333.44c13.916 0 25.237-11.32 25.237-25.237v-383.01c2e-3 -0.044-0.021-0.081-0.025-0.124zm-91.739-62.698 50.834 50.834h-49.572c-0.695 0-1.262-0.567-1.262-1.262zm67.789 445.83c0 0.695-0.566 1.261-1.261 1.261h-333.44c-0.695 0-1.261-0.566-1.261-1.261v-461.53c0-0.695 0.566-1.261 1.261-1.261h242.94v66.527c0 13.916 11.322 25.239 25.239 25.239h66.527v371.02z"/>
   </g>
   <g>
    <path d="m362.09 164.01h-212.18c-6.62 0-11.988 5.367-11.988 11.988 0 6.62 5.368 11.988 11.988 11.988h212.18c6.62 0 11.988-5.368 11.988-11.988 1e-3 -6.621-5.368-11.988-11.987-11.988z"/>
   </g>
   <g>
    <path d="m362.09 236.35h-212.18c-6.62 0-11.988 5.368-11.988 11.988s5.368 11.988 11.988 11.988h212.18c6.62 0 11.988-5.368 11.988-11.988 1e-3 -6.62-5.368-11.988-11.987-11.988z"/>
   </g>
   <g>
    <path d="m362.09 308.69h-212.18c-6.62 0-11.988 5.368-11.988 11.988 0 6.621 5.368 11.988 11.988 11.988h212.18c6.62 0 11.988-5.367 11.988-11.988 1e-3 -6.619-5.368-11.988-11.987-11.988z"/>
   </g>
   <g>
    <path d="m256 381.03h-106.09c-6.62 0-11.988 5.368-11.988 11.988 0 6.621 5.368 11.988 11.988 11.988h106.09c6.62 0 11.988-5.367 11.988-11.988s-5.368-11.988-11.988-11.988z"/>
   </g>
  </g>
  <g transform="matrix(-.030186 .03495 -.03495 -.030186 148.85 200.37)">
   <g>
    <path d="m447.93 103.63c-0.034-3.076-1.224-6.09-3.485-8.352l-91.765-91.766c-4e-3 -4e-3 -7e-3 -5e-3 -0.011-8e-3 -2.167-2.165-5.161-3.503-8.466-3.503h-254.93c-13.917 0-25.238 11.32-25.238 25.237v461.52c0 13.916 11.32 25.237 25.237 25.237h333.44c13.916 0 25.237-11.32 25.237-25.237v-383.01c2e-3 -0.044-0.021-0.081-0.025-0.124zm-91.739-62.698 50.834 50.834h-49.572c-0.695 0-1.262-0.567-1.262-1.262zm67.789 445.83c0 0.695-0.566 1.261-1.261 1.261h-333.44c-0.695 0-1.261-0.566-1.261-1.261v-461.53c0-0.695 0.566-1.261 1.261-1.261h242.94v66.527c0 13.916 11.322 25.239 25.239 25.239h66.527v371.02z"/>
   </g>
   <g>
    <path d="m362.09 164.01h-212.18c-6.62 0-11.988 5.367-11.988 11.988 0 6.62 5.368 11.988 11.988 11.988h212.18c6.62 0 11.988-5.368 11.988-11.988 1e-3 -6.621-5.368-11.988-11.987-11.988z"/>
   </g>
   <g>
    <path d="m362.09 236.35h-212.18c-6.62 0-11.988 5.368-11.988 11.988s5.368 11.988 11.988 11.988h212.18c6.62 0 11.988-5.368 11.988-11.988 1e-3 -6.62-5.368-11.988-11.987-11.988z"/>
   </g>
   <g>
    <path d="m362.09 308.69h-212.18c-6.62 0-11.988 5.368-11.988 11.988 0 6.621 5.368 11.988 11.988 11.988h212.18c6.62 0 11.988-5.367 11.988-11.988 1e-3 -6.619-5.368-11.988-11.987-11.988z"/>
   </g>
   <g>
    <path d="m256 381.03h-106.09c-6.62 0-11.988 5.368-11.988 11.988 0 6.621 5.368 11.988 11.988 11.988h106.09c6.62 0 11.988-5.367 11.988-11.988s-5.368-11.988-11.988-11.988z"/>
   </g>
  </g>
 </g>
</svg>
